<svg xmlns="http://www.w3.org/2000/svg" xmlns:xlink="http://www.w3.org/1999/xlink" version="1.1" x="0px" y="0px" viewBox="0 0 250 250" style="enable-background:new 0 0 250 250;" xml:space="preserve"><g><path d="M42.575,129.324h27.17c0.003,0,0.006,0,0.009,0c0.231,0,0.458-0.026,0.678-0.069c0.069-0.014,0.132-0.04,0.2-0.057   c0.147-0.038,0.293-0.078,0.432-0.134c0.083-0.034,0.16-0.079,0.24-0.119c0.115-0.058,0.23-0.114,0.338-0.184   c0.079-0.051,0.151-0.11,0.225-0.167c0.098-0.075,0.196-0.15,0.286-0.236c0.069-0.065,0.13-0.136,0.193-0.206   c0.082-0.092,0.162-0.184,0.235-0.284c0.056-0.078,0.106-0.159,0.156-0.242c0.063-0.104,0.122-0.209,0.173-0.319   c0.043-0.092,0.08-0.186,0.115-0.282c0.041-0.111,0.076-0.223,0.105-0.339c0.027-0.104,0.048-0.209,0.065-0.317   c0.009-0.057,0.028-0.11,0.034-0.169c2.607-24.114,21.997-43.509,46.104-46.117c1.777-0.192,3.124-1.692,3.124-3.479V61.831   c0-1.933-1.567-3.5-3.5-3.5s-3.5,1.567-3.5,3.5v11.717c-24.855,4.063-44.691,23.916-48.753,48.776H46.075V93.365   c0-1.933-1.567-3.5-3.5-3.5s-3.5,1.567-3.5,3.5v32.459C39.075,127.757,40.642,129.324,42.575,129.324z"/><path d="M207.319,134.414h-27.064c-0.053,0-0.103,0.013-0.156,0.016c-0.129,0.006-0.254,0.019-0.379,0.038   c-0.105,0.016-0.207,0.035-0.309,0.06c-0.119,0.03-0.234,0.066-0.348,0.108c-0.102,0.037-0.202,0.077-0.299,0.123   c-0.104,0.049-0.203,0.104-0.301,0.163c-0.096,0.058-0.189,0.117-0.279,0.183c-0.09,0.066-0.173,0.137-0.256,0.211   c-0.084,0.076-0.165,0.153-0.242,0.236c-0.075,0.081-0.143,0.167-0.21,0.255c-0.069,0.091-0.135,0.184-0.195,0.282   c-0.057,0.093-0.108,0.189-0.157,0.289c-0.052,0.107-0.1,0.214-0.142,0.327c-0.038,0.102-0.068,0.205-0.096,0.311   c-0.032,0.119-0.058,0.24-0.077,0.364c-0.008,0.054-0.027,0.103-0.033,0.157c-2.607,24.114-21.998,43.509-46.105,46.117   c-1.922,0.208-3.311,1.934-3.103,3.856c0.194,1.794,1.711,3.124,3.475,3.124c0.126,0,0.253-0.007,0.381-0.021   c26.303-2.845,47.646-23.306,51.877-49.2h20.519v46.757c0,1.933,1.567,3.5,3.5,3.5s3.5-1.567,3.5-3.5v-50.257   C210.819,135.981,209.252,134.414,207.319,134.414z"/><path d="M172.544,131.869c0-26.221-21.327-47.553-47.542-47.553S77.46,105.648,77.46,131.869c0,26.22,21.327,47.552,47.542,47.552   S172.544,158.089,172.544,131.869z M125.002,172.421c-22.355,0-40.542-18.192-40.542-40.552c0-22.361,18.187-40.553,40.542-40.553   s40.542,18.192,40.542,40.553C165.544,154.229,147.357,172.421,125.002,172.421z"/><path d="M119.336,183.655c-24.068-2.603-43.432-21.939-46.091-45.998c-0.056-0.757-0.348-1.442-0.81-1.988   c-0.007-0.008-0.013-0.016-0.02-0.024c-0.131-0.153-0.274-0.292-0.429-0.419c-0.027-0.022-0.053-0.044-0.08-0.066   c-0.137-0.106-0.282-0.201-0.434-0.286c-0.055-0.031-0.11-0.062-0.166-0.09c-0.13-0.064-0.264-0.117-0.402-0.165   c-0.089-0.031-0.178-0.06-0.271-0.084c-0.116-0.029-0.233-0.051-0.353-0.068c-0.12-0.018-0.24-0.031-0.363-0.037   c-0.05-0.002-0.096-0.015-0.147-0.015H42.795c-1.933,0-3.5,1.567-3.5,3.5v50.257c0,1.933,1.567,3.5,3.5,3.5s3.5-1.567,3.5-3.5   v-46.757h20.409c4.231,25.895,25.575,46.355,51.879,49.2c0.128,0.014,0.255,0.021,0.381,0.021c1.764,0,3.281-1.331,3.475-3.124   C122.647,185.589,121.258,183.862,119.336,183.655z"/><path d="M134.549,73.548V61.831c0-1.933-1.567-3.5-3.5-3.5s-3.5,1.567-3.5,3.5v14.773c0,1.787,1.347,3.288,3.124,3.479   c24.107,2.609,43.496,22.004,46.102,46.118c0.006,0.06,0.026,0.114,0.035,0.173c0.017,0.105,0.037,0.208,0.063,0.31   c0.03,0.118,0.066,0.232,0.107,0.345c0.035,0.095,0.071,0.187,0.114,0.278c0.052,0.112,0.112,0.218,0.175,0.323   c0.049,0.082,0.098,0.162,0.154,0.239c0.073,0.101,0.154,0.195,0.237,0.287c0.062,0.069,0.123,0.139,0.191,0.204   c0.091,0.086,0.189,0.162,0.288,0.238c0.074,0.057,0.145,0.115,0.223,0.166c0.109,0.07,0.225,0.127,0.341,0.185   c0.079,0.039,0.155,0.084,0.237,0.118c0.14,0.057,0.287,0.096,0.435,0.135c0.067,0.017,0.129,0.043,0.198,0.057   c0.22,0.044,0.447,0.069,0.678,0.069c0.003,0,0.006,0,0.009,0l27.28-0.001c1.933,0,3.5-1.567,3.5-3.5V93.365   c0-1.933-1.567-3.5-3.5-3.5s-3.5,1.567-3.5,3.5v28.959l-20.739,0.001C179.238,97.465,159.403,77.613,134.549,73.548z"/><ellipse cx="45.767" cy="63.496" rx="3.244" ry="3.249"/><ellipse cx="56.925" cy="63.496" rx="3.244" ry="3.249"/><ellipse cx="68.083" cy="63.431" rx="3.244" ry="3.249"/><path d="M211.55,44.255H38.45c-7.42,0-13.45,6.03-13.45,13.45v134.6c0,7.41,6.03,13.44,13.45,13.44h173.1   c7.42,0,13.45-6.03,13.45-13.44v-134.6C225,50.285,218.97,44.255,211.55,44.255z M218,192.305c0,3.55-2.89,6.44-6.45,6.44H38.45   c-3.56,0-6.45-2.89-6.45-6.44V82.785h46.77c1.94,0,3.5-1.56,3.5-3.5c0-1.93-1.56-3.5-3.5-3.5H32v-18.08c0-3.56,2.89-6.45,6.45-6.45   h173.1c3.56,0,6.45,2.89,6.45,6.45v18.08h-46.77c-1.93,0-3.5,1.57-3.5,3.5c0,1.94,1.57,3.5,3.5,3.5H218V192.305z"/><path fill="" d="M56.868,148.49c-1.933,0-3.5,1.567-3.5,3.5v36.181c0,1.933,1.567,3.5,3.5,3.5s3.5-1.567,3.5-3.5V151.99   C60.368,150.057,58.801,148.49,56.868,148.49z"/><path fill="" d="M70.941,173.175c-1.933,0-3.5,1.567-3.5,3.5v11.497c0,1.933,1.567,3.5,3.5,3.5s3.5-1.567,3.5-3.5v-11.497   C74.441,174.742,72.874,173.175,70.941,173.175z"/><path fill="" d="M179.174,173.175c-1.933,0-3.5,1.567-3.5,3.5v11.497c0,1.933,1.567,3.5,3.5,3.5s3.5-1.567,3.5-3.5v-11.497   C182.674,174.742,181.107,173.175,179.174,173.175z"/><path fill="" d="M56.868,115.247c1.933,0,3.5-1.567,3.5-3.5V93.365c0-1.933-1.567-3.5-3.5-3.5s-3.5,1.567-3.5,3.5v18.383   C53.368,113.681,54.935,115.247,56.868,115.247z"/><path fill="" d="M193.246,148.49c-1.933,0-3.5,1.567-3.5,3.5v36.181c0,1.933,1.567,3.5,3.5,3.5s3.5-1.567,3.5-3.5V151.99   C196.746,150.057,195.179,148.49,193.246,148.49z"/><path fill="" d="M193.466,115.249c1.933,0,3.5-1.567,3.5-3.5V93.365c0-1.933-1.567-3.5-3.5-3.5s-3.5,1.567-3.5,3.5v18.384   C189.966,113.682,191.533,115.249,193.466,115.249z"/><path fill="" d="M86.96,185.265c-0.19-0.13-0.4-0.24-0.61-0.33c-0.21-0.08-0.43-0.15-0.65-0.2c-0.45-0.09-0.92-0.09-1.37,0   c-0.22,0.05-0.44,0.12-0.66,0.2c-0.21,0.09-0.41,0.2-0.6,0.33c-0.19,0.12-0.37,0.27-0.53,0.43c-0.65,0.65-1.03,1.55-1.03,2.48   c0,0.22,0.03,0.45,0.07,0.68c0.05,0.22,0.11,0.44,0.2,0.66c0.09,0.21,0.2,0.41,0.32,0.6c0.13,0.19,0.28,0.37,0.44,0.53   c0.16,0.16,0.34,0.31,0.53,0.44c0.19,0.12,0.39,0.23,0.6,0.32c0.22,0.09,0.44,0.15,0.66,0.2c0.23,0.04,0.46,0.07,0.68,0.07   c0.23,0,0.46-0.03,0.69-0.07c0.22-0.05,0.44-0.11,0.65-0.2c0.21-0.09,0.42-0.2,0.61-0.32c0.19-0.13,0.37-0.28,0.53-0.44   c0.16-0.16,0.31-0.34,0.43-0.53c0.13-0.19,0.24-0.39,0.33-0.6c0.08-0.22,0.15-0.44,0.2-0.66c0.04-0.23,0.06-0.46,0.06-0.68   c0-0.92-0.37-1.83-1.02-2.48C87.33,185.535,87.15,185.385,86.96,185.265z"/><path fill="" d="M162.63,185.695c-0.66,0.65-1.03,1.55-1.03,2.48c0,0.22,0.02,0.45,0.07,0.68c0.04,0.22,0.11,0.44,0.2,0.66   c0.09,0.21,0.19,0.41,0.32,0.6c0.13,0.19,0.27,0.37,0.44,0.53c0.65,0.65,1.55,1.03,2.47,1.03s1.82-0.38,2.48-1.03   c0.16-0.16,0.3-0.34,0.43-0.53s0.24-0.39,0.32-0.6c0.09-0.22,0.16-0.44,0.2-0.66c0.05-0.23,0.07-0.46,0.07-0.68   c0-0.92-0.37-1.83-1.02-2.48C166.27,184.395,163.93,184.395,162.63,185.695z"/></g></svg>